# Blender v2.92.0 OBJ File: ''
# www.blender.org
mtllib arrow.mtl
o Arrow_Cube.009
v 0.025000 0.018193 -0.005000
v 0.025000 0.088474 -0.005000
v 0.025000 0.018193 0.005000
v 0.025000 0.088474 0.005000
v -0.025000 0.018193 -0.005000
v -0.025000 0.088474 -0.005000
v -0.025000 0.018193 0.005000
v -0.025000 0.088474 0.005000
v 0.035000 0.088474 -0.005000
v 0.035000 0.088474 0.005000
v -0.035000 0.088474 0.005000
v -0.035000 0.088474 -0.005000
v -0.000000 0.118193 -0.005000
v -0.000000 0.118193 0.005000
vt 0.375000 0.000000
vt 0.625000 0.000000
vt 0.625000 0.250000
vt 0.375000 0.250000
vt 0.625000 0.500000
vt 0.375000 0.500000
vt 0.625000 0.750000
vt 0.375000 0.750000
vt 0.625000 1.000000
vt 0.375000 1.000000
vt 0.125000 0.500000
vt 0.125000 0.750000
vt 0.625000 0.000000
vt 0.625000 0.250000
vt 0.625000 1.000000
vt 0.625000 0.750000
vt 0.625000 1.000000
vt 0.625000 0.500000
vt 0.625000 0.500000
vt 0.625000 0.750000
vt 0.625000 0.000000
vt 0.625000 0.250000
vn 1.0000 0.0000 0.0000
vn -0.0000 -0.0000 1.0000
vn -1.0000 -0.0000 0.0000
vn 0.0000 0.0000 -1.0000
vn 0.0000 -1.0000 0.0000
vn -0.0000 0.9677 -0.2520
vn -0.6473 0.7623 0.0000
vn 0.6473 0.7623 -0.0000
usemtl None
s 1
f 1/1/1 2/2/1 4/3/1 3/4/1
f 3/4/2 4/3/2 8/5/2 7/6/2
f 7/6/3 8/5/3 6/7/3 5/8/3
f 5/8/4 6/7/4 2/9/4 1/10/4
f 3/11/5 7/6/5 5/8/5 1/12/5
f 4/3/5 2/2/5 9/13/5 10/14/5
f 9/15/4 12/16/4 13/17/4
f 2/9/6 6/7/6 12/16/6 9/15/6
f 8/5/6 4/3/6 10/14/6 11/18/6
f 6/7/5 8/5/5 11/18/5 12/16/5
f 11/18/2 10/14/2 14/19/2
f 12/16/7 11/18/7 14/19/7 13/20/7
f 10/14/8 9/13/8 13/21/8 14/22/8
